<?xml version="1.0" encoding="UTF-8"?>
<!DOCTYPE svg PUBLIC "-//W3C//DTD SVG 1.1//EN" "http://www.w3.org/Graphics/SVG/1.1/DTD/svg11.dtd">
<svg xmlns="http://www.w3.org/2000/svg" version="1.1" width="1697px" height="1697px" style="shape-rendering:geometricPrecision; text-rendering:geometricPrecision; image-rendering:optimizeQuality; fill-rule:evenodd; clip-rule:evenodd" xmlns:xlink="http://www.w3.org/1999/xlink">
<g><path style="opacity:1" fill="#9d9d9d" d="M 1696.5,810.5 C 1696.5,835.5 1696.5,860.5 1696.5,885.5C 1544.86,733.86 1392.86,582.527 1240.5,431.5C 1237.91,423.744 1232.57,418.91 1224.5,417C 1181.8,416.183 1139.14,416.35 1096.5,417.5C 1017.45,371.691 931.945,349.358 840,350.5C 754.211,352.267 674.045,374.267 599.5,416.5C 557.165,416.333 514.832,416.5 472.5,417C 461.761,421.639 457.095,429.805 458.5,441.5C 456.801,453.609 461.468,462.109 472.5,467C 490.497,467.5 508.497,467.667 526.5,467.5C 513.225,479.107 500.558,491.441 488.5,504.5C 473.163,504.333 457.83,504.5 442.5,505C 418.946,511.887 409.446,527.387 414,551.5C 417.599,562.255 424.433,569.922 434.5,574.5C 433.325,574.281 432.325,574.614 431.5,575.5C 368.422,673.806 342.256,781.473 353,898.5C 363.443,995.322 398.61,1081.66 458.5,1157.5C 458.333,1241.17 458.5,1324.83 459,1408.5C 460.502,1414.5 464.002,1418.83 469.5,1421.5C 529.5,1482.17 589.833,1542.5 650.5,1602.5C 639.58,1617.59 626.247,1630.09 610.5,1640C 593.106,1647.93 575.106,1649.6 556.5,1645C 461.79,1610.09 376.29,1560.26 300,1495.5C 283.376,1475.67 277.71,1453.01 283,1427.5C 303.068,1363.8 323.234,1300.13 343.5,1236.5C 309.508,1191.71 281.508,1143.21 259.5,1091C 194.867,1076.54 130.2,1062.21 65.5,1048C 35.828,1038.66 17.6613,1018.83 11,988.5C 5.1053,950.552 1.27196,912.552 -0.5,874.5C -0.5,856.833 -0.5,839.167 -0.5,821.5C 1.22696,783.443 5.0603,745.443 11,707.5C 17.4923,676.368 35.9923,656.201 66.5,647C 130.5,633 194.5,619 258.5,605C 281.111,552.579 309.445,503.745 343.5,458.5C 322.381,394.022 301.881,329.356 282,264.5C 277.751,235.507 286.585,211.34 308.5,192C 382.407,131.688 464.407,84.688 554.5,51C 580.179,44.1359 603.513,48.8026 624.5,65C 670.869,115.034 716.869,165.367 762.5,216C 790.904,213.228 819.404,211.728 848,211.5C 857.5,211.667 867,211.833 876.5,212C 895.205,213.226 913.872,214.559 932.5,216C 972.783,171.928 1012.95,127.761 1053,83.5C 1059.5,77 1066,70.5 1072.5,64C 1091.99,49.3778 1113.66,44.7112 1137.5,50C 1219.75,80.0583 1295.41,121.392 1364.5,174C 1375.96,183.125 1387.13,192.625 1398,202.5C 1414.67,224.527 1419,248.86 1411,275.5C 1391.03,337.072 1371.7,398.738 1353,460.5C 1387.19,504.503 1415.02,552.503 1436.5,604.5C 1501.44,619.152 1566.44,633.652 1631.5,648C 1660.63,657.789 1678.46,677.623 1685,707.5C 1690.56,741.794 1694.39,776.127 1696.5,810.5 Z"/></g>
<g><path style="opacity:1" fill="#fefefe" d="M 1096.5,417.5 C 1092.24,419.926 1088.74,423.26 1086,427.5C 1084.06,436.855 1084.06,446.189 1086,455.5C 1088.11,459.948 1091.28,463.448 1095.5,466C 1119.79,467.45 1144.12,467.95 1168.5,467.5C 1181.78,479.107 1194.44,491.441 1206.5,504.5C 967.167,504.5 727.833,504.5 488.5,504.5C 500.558,491.441 513.225,479.107 526.5,467.5C 550.836,467.667 575.169,467.5 599.5,467C 607.444,464.723 612.278,459.556 614,451.5C 614.667,444.5 614.667,437.5 614,430.5C 611.226,423.557 606.393,418.89 599.5,416.5C 674.045,374.267 754.211,352.267 840,350.5C 931.945,349.358 1017.45,371.691 1096.5,417.5 Z"/></g>
<g><path style="opacity:1" fill="#029fe2" d="M 599.5,416.5 C 606.393,418.89 611.226,423.557 614,430.5C 614.667,437.5 614.667,444.5 614,451.5C 612.278,459.556 607.444,464.723 599.5,467C 575.169,467.5 550.836,467.667 526.5,467.5C 508.497,467.667 490.497,467.5 472.5,467C 461.468,462.109 456.801,453.609 458.5,441.5C 457.095,429.805 461.761,421.639 472.5,417C 514.832,416.5 557.165,416.333 599.5,416.5 Z"/></g>
<g><path style="opacity:1" fill="#c7d303" d="M 682.5,416.5 C 724.835,416.333 767.168,416.5 809.5,417C 815.247,419.079 819.414,422.912 822,428.5C 823.572,436.755 823.905,445.089 823,453.5C 820.432,460.401 815.598,464.901 808.5,467C 766.167,467.667 723.833,467.667 681.5,467C 670.484,462.144 665.817,453.644 667.5,441.5C 665.632,428.884 670.632,420.551 682.5,416.5 Z"/></g>
<g><path style="opacity:1" fill="#f07e16" d="M 891.5,416.5 C 932.835,416.333 974.168,416.5 1015.5,417C 1022,418.823 1026.84,422.656 1030,428.5C 1031.56,436.087 1031.9,443.754 1031,451.5C 1029.13,460.036 1023.96,465.203 1015.5,467C 974.167,467.667 932.833,467.667 891.5,467C 879.719,462.617 874.719,454.117 876.5,441.5C 875.674,429.459 880.674,421.126 891.5,416.5 Z"/></g>
<g><path style="opacity:1" fill="#de2815" d="M 1240.5,431.5 C 1240.67,438.175 1240.5,444.842 1240,451.5C 1238.28,459.556 1233.44,464.723 1225.5,467C 1206.5,467.5 1187.5,467.667 1168.5,467.5C 1144.12,467.95 1119.79,467.45 1095.5,466C 1091.28,463.448 1088.11,459.948 1086,455.5C 1084.06,446.189 1084.06,436.855 1086,427.5C 1088.74,423.26 1092.24,419.926 1096.5,417.5C 1139.14,416.35 1181.8,416.183 1224.5,417C 1232.57,418.91 1237.91,423.744 1240.5,431.5 Z"/></g>
<g><path style="opacity:0.999" fill="#8b8b8b" d="M 1240.5,431.5 C 1392.86,582.527 1544.86,733.86 1696.5,885.5C 1696.5,886.167 1696.5,886.833 1696.5,887.5C 1694.26,923.571 1690.09,959.571 1684,995.5C 1675.4,1023.1 1657.24,1040.93 1629.5,1049C 1565.48,1063.1 1501.48,1077.27 1437.5,1091.5C 1415.85,1142.51 1388.35,1189.84 1355,1233.5C 1353.63,1235.7 1353.29,1238.03 1354,1240.5C 1373.33,1301.17 1392.67,1361.83 1412,1422.5C 1420.02,1454.61 1411.85,1481.77 1387.5,1504C 1316.59,1561.65 1238.25,1607.32 1152.5,1641C 1122.68,1653.1 1095.01,1649.43 1069.5,1630C 1023.46,1580.3 977.798,1530.3 932.5,1480C 904.423,1482.66 876.256,1484.16 848,1484.5C 821.064,1484.48 794.231,1482.81 767.5,1479.5C 765.571,1479.54 763.738,1479.87 762,1480.5C 725.336,1521.66 688.17,1562.33 650.5,1602.5C 589.833,1542.5 529.5,1482.17 469.5,1421.5C 513.125,1422.66 556.792,1422.82 600.5,1422C 607.262,1420.24 611.762,1416.07 614,1409.5C 614.5,1369.17 614.667,1328.83 614.5,1288.5C 745.583,1353.95 880.583,1362.78 1019.5,1315C 1151.76,1263.4 1246.93,1172.9 1305,1043.5C 1351.06,931.757 1357.06,817.757 1323,701.5C 1310.09,662.003 1293.09,624.336 1272,588.5C 1268.7,583.518 1265.2,578.852 1261.5,574.5C 1278.34,566.497 1285.5,553.164 1283,534.5C 1279.8,520.642 1271.64,511.142 1258.5,506C 1241.21,504.572 1223.88,504.072 1206.5,504.5C 1194.44,491.441 1181.78,479.107 1168.5,467.5C 1187.5,467.667 1206.5,467.5 1225.5,467C 1233.44,464.723 1238.28,459.556 1240,451.5C 1240.5,444.842 1240.67,438.175 1240.5,431.5 Z"/></g>
<g><path style="opacity:1" fill="#696969" d="M 488.5,504.5 C 727.833,504.5 967.167,504.5 1206.5,504.5C 1223.88,504.072 1241.21,504.572 1258.5,506C 1271.64,511.142 1279.8,520.642 1283,534.5C 1285.5,553.164 1278.34,566.497 1261.5,574.5C 1258.96,575.624 1256.29,576.458 1253.5,577C 983.167,577.667 712.833,577.667 442.5,577C 439.588,576.725 436.921,575.891 434.5,574.5C 424.433,569.922 417.599,562.255 414,551.5C 409.446,527.387 418.946,511.887 442.5,505C 457.83,504.5 473.163,504.333 488.5,504.5 Z"/></g>
<g><path style="opacity:1" fill="#fefefe" d="M 434.5,574.5 C 436.921,575.891 439.588,576.725 442.5,577C 712.833,577.667 983.167,577.667 1253.5,577C 1256.29,576.458 1258.96,575.624 1261.5,574.5C 1265.2,578.852 1268.7,583.518 1272,588.5C 1293.09,624.336 1310.09,662.003 1323,701.5C 1357.06,817.757 1351.06,931.757 1305,1043.5C 1246.93,1172.9 1151.76,1263.4 1019.5,1315C 880.583,1362.78 745.583,1353.95 614.5,1288.5C 614.667,1069.5 614.5,850.5 614,631.5C 612.237,624.738 608.07,620.238 601.5,618C 558.5,617.333 515.5,617.333 472.5,618C 465.738,619.763 461.238,623.93 459,630.5C 458.5,806.166 458.333,981.833 458.5,1157.5C 398.61,1081.66 363.443,995.322 353,898.5C 342.256,781.473 368.422,673.806 431.5,575.5C 432.325,574.614 433.325,574.281 434.5,574.5 Z"/></g>
<g><path style="opacity:1" fill="#009fe2" d="M 614.5,1288.5 C 614.667,1328.83 614.5,1369.17 614,1409.5C 611.762,1416.07 607.262,1420.24 600.5,1422C 556.792,1422.82 513.125,1422.66 469.5,1421.5C 464.002,1418.83 460.502,1414.5 459,1408.5C 458.5,1324.83 458.333,1241.17 458.5,1157.5C 458.333,981.833 458.5,806.166 459,630.5C 461.238,623.93 465.738,619.763 472.5,618C 515.5,617.333 558.5,617.333 601.5,618C 608.07,620.238 612.237,624.738 614,631.5C 614.5,850.5 614.667,1069.5 614.5,1288.5 Z"/></g>
<g><path style="opacity:1" fill="#c7d302" d="M 680.5,617.5 C 724.168,617.333 767.835,617.5 811.5,618C 817.731,619.963 821.564,624.13 823,630.5C 823.667,840.833 823.667,1051.17 823,1261.5C 821.037,1267.73 816.87,1271.56 810.5,1273C 766.833,1273.67 723.167,1273.67 679.5,1273C 673.269,1271.04 669.436,1266.87 668,1260.5C 667.333,1050.17 667.333,839.833 668,629.5C 670.208,623.337 674.375,619.337 680.5,617.5 Z"/></g>
<g><path style="opacity:1" fill="#f07e16" d="M 890.5,617.5 C 932.501,617.333 974.501,617.5 1016.5,618C 1023.6,620.099 1028.43,624.599 1031,631.5C 1031.67,767.167 1031.67,902.833 1031,1038.5C 1028.83,1046 1024,1050.83 1016.5,1053C 974.5,1053.67 932.5,1053.67 890.5,1053C 883.572,1050.41 879.072,1045.57 877,1038.5C 876.333,902.833 876.333,767.167 877,631.5C 879.713,624.956 884.213,620.289 890.5,617.5 Z"/></g>
<g><path style="opacity:1" fill="#df2815" d="M 1099.5,617.5 C 1141.17,617.333 1182.83,617.5 1224.5,618C 1231.37,619.341 1236.2,623.175 1239,629.5C 1240.66,709.776 1240.99,790.11 1240,870.5C 1238.66,877.368 1234.83,882.201 1228.5,885C 1185.89,886.65 1143.23,886.984 1100.5,886C 1093.63,884.659 1088.8,880.825 1086,874.5C 1084.34,794.224 1084.01,713.89 1085,633.5C 1086.95,625.393 1091.78,620.06 1099.5,617.5 Z"/></g>
</svg>
